<svg width="1080" height="1080" viewBox="0 0 1080 1080" fill="none" xmlns="http://www.w3.org/2000/svg">
<rect width="1080" height="1080" fill="white"/>
<path d="M278.546 538.283C278.204 537.491 281.976 534.428 286.718 533.014C291.772 531.505 296.205 532.382 298.868 532.941C303.195 533.847 306.555 535.531 308.733 536.622C311.99 538.253 313.097 539.262 316.733 540.671C320.931 542.297 322.864 542.272 323.458 542.25C324.668 542.206 327.606 542.101 330.178 539.897C333.39 537.145 333.573 533.229 333.591 532.628C333.729 528.064 330.696 525.193 330.236 524.773C331.168 524.676 332.543 524.659 334.053 525.154C338.486 526.609 340.859 531.418 341.387 535.111C342.392 542.159 336.971 547.236 336.13 548.02C331.26 552.579 325.209 552.672 323.624 552.673C315.885 552.673 309.546 547.812 306.722 545.646C304.349 543.828 302.74 542.11 299.056 540.192C297.567 539.417 295.043 538.102 291.836 537.462C284.439 535.985 278.943 539.203 278.546 538.283Z" fill="#4A7B9D"/>
<path d="M356.61 516.884C355.547 515.146 351.915 509.405 344.651 506.551C342.125 505.559 331.507 501.908 324.33 508.349C320.776 511.538 318.037 517.226 319.431 522.994C320.299 526.58 322.462 528.935 323.639 530.042C323.412 529.296 323.156 528.201 323.118 526.869C323.089 525.807 322.966 521.477 326.218 518.379C329.443 515.31 333.675 515.65 334.841 515.742C338.76 516.056 341.346 518.181 342.405 519.076C346.451 522.496 347.432 527.066 347.828 528.925C349.167 535.184 347.113 540.27 346.093 542.695C343.667 548.469 339.849 551.721 338.847 552.539C334.992 555.689 331.218 556.783 328.755 557.473C326.54 558.093 319.689 559.918 311.849 557.666C307.613 556.45 304.17 554.179 297.283 549.64C292.515 546.496 291.13 545.091 287.838 544.143C283.307 542.838 279.086 543.533 276.168 544.358C277.07 547.069 278.669 551.042 281.517 555.329C283.659 558.548 288.996 566.35 299.227 570.867C301.9 572.048 306.211 573.579 311.901 574.018C308.409 574.074 302.354 573.719 295.563 570.841C293.306 569.886 287.555 567.203 282.079 561.481C278.092 557.314 276.11 553.477 274.553 550.467C272.015 545.557 271.556 542.816 271.59 540.55C271.637 537.39 272.634 535.68 272.953 535.172C273.895 533.671 275.118 532.786 276.854 531.752C280.751 529.437 284.059 528.274 285.52 527.728C286.93 527.2 291.859 525.322 296.463 522.108C298.647 520.581 303.203 517.401 306.409 511.898C307.251 510.456 307.513 509.683 310.305 504.546C311.844 501.716 312.613 500.301 313.068 499.565C314.53 497.195 317.051 493.179 321.507 489.46C322.803 488.377 324.748 486.917 327.36 485.51C324.213 484.459 319.71 483.289 314.207 482.951C309.223 482.649 300.937 482.879 291.734 486.636C281.917 490.642 276.074 496.609 274.82 497.924C268.159 504.906 265.437 512.132 264.538 514.787C260.907 525.524 262.306 534.838 263.257 539.145C265.659 550.005 271.376 556.868 274.931 561.038C278.716 565.476 285.387 573.295 297.232 577.153C309.346 581.101 319.67 578.56 323.902 577.459C337.509 573.919 345.549 565.774 347.236 564.007C355.74 555.102 358.273 545.485 358.82 543.239C360.069 538.12 362.787 526.968 356.61 516.884ZM274.151 513.591C275.62 510.842 278.521 506.142 283.596 501.699C289.902 496.178 296.184 494.014 300.466 492.585C305.916 490.767 310.677 490.088 314.01 489.814C311.713 490.464 308.361 491.546 304.5 493.303C301.07 494.863 288.581 500.898 277.943 514.607C275.515 517.735 272.347 522.342 269.462 528.459C269.881 525.029 270.968 519.553 274.151 513.591ZM336.791 563.443C332.173 567.305 327.321 568.262 323.693 568.935C320.543 569.518 313.418 570.746 305.342 567.76C298.715 565.311 294.789 561.261 289.68 555.996C286.57 552.79 283.755 549.233 284.083 548.904C284.389 548.596 287.202 551.372 292.297 554.827C294.547 556.352 297.837 558.586 302.139 560.499C305.189 561.854 310.113 563.991 316.922 564.38C319.552 564.53 324.435 564.532 330.209 562.774C335.883 561.047 339.989 558.361 342.437 556.478C341.455 558.304 339.713 560.999 336.791 563.443Z" fill="#4A7B9D"/>
<path d="M412.614 557.036C408.815 557.036 405.362 556.395 402.254 555.112C399.195 553.78 396.655 551.881 394.632 549.414L402.624 539.942C404.005 541.718 405.436 543.075 406.916 544.012C408.396 544.9 409.95 545.344 411.578 545.344C415.919 545.344 418.09 542.828 418.09 537.796V515.522H400.182V504.2H432.594V536.908C432.594 543.667 430.892 548.723 427.488 552.078C424.084 555.383 419.126 557.036 412.614 557.036ZM466.311 556V548.526L465.349 546.676V532.912C465.349 530.692 464.659 528.99 463.277 527.806C461.945 526.573 459.799 525.956 456.839 525.956C454.915 525.956 452.967 526.277 450.993 526.918C449.02 527.51 447.343 528.349 445.961 529.434L441.225 519.888C443.495 518.408 446.208 517.273 449.365 516.484C452.572 515.645 455.754 515.226 458.911 515.226C465.423 515.226 470.455 516.731 474.007 519.74C477.609 522.7 479.409 527.362 479.409 533.726V556H466.311ZM454.471 556.666C451.265 556.666 448.551 556.123 446.331 555.038C444.111 553.953 442.409 552.473 441.225 550.598C440.091 548.723 439.523 546.627 439.523 544.308C439.523 541.841 440.14 539.72 441.373 537.944C442.656 536.119 444.605 534.737 447.219 533.8C449.834 532.813 453.213 532.32 457.357 532.32H466.829V539.646H459.281C457.012 539.646 455.409 540.016 454.471 540.756C453.583 541.496 453.139 542.483 453.139 543.716C453.139 544.949 453.608 545.936 454.545 546.676C455.483 547.416 456.765 547.786 458.393 547.786C459.923 547.786 461.304 547.416 462.537 546.676C463.82 545.887 464.757 544.703 465.349 543.124L467.273 548.304C466.533 551.067 465.078 553.163 462.907 554.594C460.786 555.975 457.974 556.666 454.471 556.666ZM506.254 556.666C502.603 556.666 499.273 555.827 496.264 554.15C493.304 552.423 490.936 550.031 489.16 546.972C487.384 543.864 486.496 540.164 486.496 535.872C486.496 531.629 487.384 527.979 489.16 524.92C490.936 521.812 493.304 519.419 496.264 517.742C499.273 516.065 502.603 515.226 506.254 515.226C509.707 515.226 512.618 515.966 514.986 517.446C517.403 518.926 519.229 521.195 520.462 524.254C521.695 527.313 522.312 531.185 522.312 535.872C522.312 540.657 521.72 544.579 520.536 547.638C519.352 550.697 517.576 552.966 515.208 554.446C512.84 555.926 509.855 556.666 506.254 556.666ZM509.214 545.492C510.793 545.492 512.199 545.122 513.432 544.382C514.715 543.642 515.726 542.557 516.466 541.126C517.206 539.646 517.576 537.895 517.576 535.872C517.576 533.849 517.206 532.147 516.466 530.766C515.726 529.335 514.715 528.25 513.432 527.51C512.199 526.77 510.793 526.4 509.214 526.4C507.586 526.4 506.131 526.77 504.848 527.51C503.615 528.25 502.628 529.335 501.888 530.766C501.148 532.147 500.778 533.849 500.778 535.872C500.778 537.895 501.148 539.646 501.888 541.126C502.628 542.557 503.615 543.642 504.848 544.382C506.131 545.122 507.586 545.492 509.214 545.492ZM518.02 556V549.118L518.094 535.872L517.354 522.626V501.092H531.414V556H518.02ZM561.476 556.666C556.74 556.666 552.596 555.778 549.044 554.002C545.541 552.177 542.803 549.71 540.83 546.602C538.906 543.445 537.944 539.868 537.944 535.872C537.944 531.876 538.881 528.324 540.756 525.216C542.68 522.059 545.319 519.617 548.674 517.89C552.029 516.114 555.803 515.226 559.996 515.226C563.943 515.226 567.544 516.04 570.8 517.668C574.056 519.247 576.646 521.59 578.57 524.698C580.494 527.806 581.456 531.58 581.456 536.02C581.456 536.513 581.431 537.081 581.382 537.722C581.333 538.363 581.283 538.955 581.234 539.498H549.488V532.098H573.76L568.432 534.17C568.481 532.345 568.136 530.766 567.396 529.434C566.705 528.102 565.719 527.066 564.436 526.326C563.203 525.586 561.747 525.216 560.07 525.216C558.393 525.216 556.913 525.586 555.63 526.326C554.397 527.066 553.435 528.127 552.744 529.508C552.053 530.84 551.708 532.419 551.708 534.244V536.39C551.708 538.363 552.103 540.065 552.892 541.496C553.731 542.927 554.915 544.037 556.444 544.826C557.973 545.566 559.799 545.936 561.92 545.936C563.893 545.936 565.571 545.665 566.952 545.122C568.383 544.53 569.789 543.642 571.17 542.458L578.57 550.154C576.646 552.275 574.278 553.903 571.466 555.038C568.654 556.123 565.324 556.666 561.476 556.666ZM603.626 556L586.162 504.2H591.786L608.14 552.966H605.328L622.2 504.2H627.232L643.882 552.966H641.218L657.72 504.2H662.974L645.51 556H639.738L623.828 509.75H625.308L609.324 556H603.626ZM685.444 556.37C681.399 556.37 677.847 555.531 674.788 553.854C671.729 552.127 669.337 549.784 667.61 546.824C665.883 543.815 665.02 540.386 665.02 536.538C665.02 532.69 665.834 529.286 667.462 526.326C669.139 523.366 671.409 521.047 674.27 519.37C677.181 517.643 680.437 516.78 684.038 516.78C687.689 516.78 690.92 517.619 693.732 519.296C696.593 520.924 698.838 523.243 700.466 526.252C702.094 529.212 702.908 532.641 702.908 536.538C702.908 536.785 702.883 537.056 702.834 537.352C702.834 537.599 702.834 537.87 702.834 538.166H669.016V534.244H700.022L697.95 535.798C697.95 532.986 697.333 530.495 696.1 528.324C694.916 526.104 693.288 524.377 691.216 523.144C689.144 521.911 686.751 521.294 684.038 521.294C681.374 521.294 678.981 521.911 676.86 523.144C674.739 524.377 673.086 526.104 671.902 528.324C670.718 530.544 670.126 533.085 670.126 535.946V536.76C670.126 539.72 670.767 542.335 672.05 544.604C673.382 546.824 675.207 548.575 677.526 549.858C679.894 551.091 682.583 551.708 685.592 551.708C687.96 551.708 690.155 551.289 692.178 550.45C694.25 549.611 696.026 548.329 697.506 546.602L700.466 550.006C698.739 552.078 696.569 553.657 693.954 554.742C691.389 555.827 688.552 556.37 685.444 556.37ZM713.602 556V501.092H718.856V556H713.602ZM733.475 556V501.092H738.729V556H733.475Z" fill="#4A7B9D"/>
</svg>
